PathFileType	4	(X/Y/Z)	OpenSim_Sub10_EMGStiffKnee_Accel.trc
DataRate	CameraRate	NumFrames	NumMarkers	Units	OrigDataRate	OrigDataStartFrame	OrigNumFrames
100	100	37	8	m	100	6279	8371
Frame#	Time	torso_imu_offset_imu	pelvis_imu_offset_imu	tibia_r_imu_offset_imu	femur_r_imu_offset_imu	tibia_l_imu_offset_imu	femur_l_imu_offset_imu	toes_r_imu_offset_imu	toes_l_imu_offset_imu
				X1	Y1	Z1	X2	Y2	Z2	X3	Y3	Z3	X4	Y4	Z4	X5	Y5	Z5	X6	Y6	Z6	X7	Y7	Z7	X8		Y8	Z8	

6279	62.78000000	7.80441100	0.62896400	6.08186200	8.98753900	0.13979200	3.06811800	5.22035200	1.55679900	0.79307000	7.73250000	-2.65929500	1.48147000	10.44079700	-0.67229000	0.86427400	10.24832800	-0.20399400	-1.46989300	5.56675600	0.93634300	10.68476600	4.93943700	0.26055600	11.20704000
6280	62.79000000	7.77367000	0.63759600	6.13815500	9.06049600	0.21734300	3.02461800	5.78719900	1.87715000	0.83386300	7.69043400	-2.75056400	1.51448800	10.57962000	-0.18327700	1.12128500	10.19567900	0.77997200	-1.83754700	6.44036200	0.90308000	10.74427100	5.09050500	0.44954900	11.15754100
6281	62.80000000	7.75901500	0.66575100	6.24708000	9.11800000	0.08247400	3.03985400	6.53066800	2.27642500	1.30256600	7.61626500	-2.67942800	1.58818800	10.33820200	0.14029100	1.25159300	9.86223700	1.63002100	-2.12664100	6.54903900	0.71585900	10.19784800	4.69053700	0.51620100	11.37221600
6282	62.81000000	7.82916400	0.66888900	6.32918800	9.17971400	-0.13125900	2.97874600	7.66324700	2.77675800	1.57472200	7.57168500	-2.51422200	1.69061700	10.13149500	0.23242700	1.31979800	9.29184700	2.34036500	-2.31048000	6.72664100	-0.02012900	9.58001900	4.89023000	0.53432800	11.22312700
6283	62.82000000	8.00506500	0.77126500	6.47635600	9.25002200	-0.43811900	2.87384400	9.43542300	3.81320500	1.39876700	7.57225500	-2.25602400	1.77991200	9.94753500	0.20247800	0.81313500	8.87218000	2.67177500	-2.03446600	8.73687600	-1.18442900	10.07628200	5.11858300	0.72686300	11.09958200
6284	62.83000000	8.11802100	0.84958200	6.41758200	9.17426400	-0.83856000	2.65252800	11.45482200	5.47465500	0.86289400	7.55738600	-2.26818000	1.74494300	9.95123700	-0.12554500	0.65100700	8.60072000	2.85240000	-1.71850800	13.87232900	-2.31261500	12.06210100	5.35297700	0.62804600	10.91664200
6285	62.84000000	8.22724500	0.94572100	6.37449200	9.00644600	-1.21261800	2.52774900	12.96699700	7.92119500	0.14686000	7.46262100	-2.49556100	1.56386800	9.83236600	-0.72927900	0.61360900	8.48792000	2.81357400	-1.75879000	17.18039400	-4.47489800	12.34974800	4.94436700	0.70554900	11.18278700
6286	62.85000000	8.24856000	0.97997200	6.30024400	8.68913700	-1.36217000	2.68700500	13.15338400	10.48772700	-0.54118500	7.10235700	-2.80662900	1.46230200	9.72936000	-1.15820300	0.21432700	8.45217600	2.61894200	-1.93049000	17.04101700	-5.41239500	10.86491400	4.91778400	0.68632100	11.21413000
6287	62.86000000	8.30827700	0.89909500	6.21293700	8.41541400	-1.49203500	2.81039900	11.85925200	11.29433400	-0.97636000	6.76414000	-3.16260100	1.59942900	9.91007600	-1.33427400	-0.16624400	8.66671500	2.37316400	-2.16339800	17.87922300	-4.03786800	9.64532300	5.30469200	0.74538800	11.13940200
6288	62.87000000	8.23632500	1.01390300	6.18532800	8.31884900	-1.53642700	2.81183700	10.02574500	9.45872300	0.15395300	6.68138100	-3.30933500	2.10535900	10.12357800	-1.22941500	-0.12558200	8.84637600	2.35473300	-2.33719700	19.62804800	-0.91796000	9.04835800	5.28815000	0.76156200	10.92540400
6289	62.88000000	8.30986100	1.00958100	6.10332300	8.39913800	-1.50511500	2.66824500	8.66388600	5.45177500	0.99272900	6.71674200	-3.51676000	2.78697200	10.06281700	-1.00315200	-0.35114800	9.01026600	2.39596600	-2.41180100	20.88894000	1.02695900	7.92702300	5.16986400	0.86339200	11.16185000
6290	62.89000000	8.57168100	1.02679400	6.07963400	8.60758400	-1.34487400	2.46718400	8.47164600	1.17481700	-0.11091300	6.73228500	-3.95675700	2.99761400	10.02019900	-0.76663800	-0.23569400	8.97938500	2.45561600	-2.33768900	20.22610400	0.78365000	4.67336800	4.78268800	0.82646200	11.38037800
6291	62.90000000	8.78439500	1.02177600	6.06610200	8.72480400	-1.13176300	2.43519400	9.66087300	-1.36251900	-1.33818100	6.97281500	-4.26565700	2.60276800	10.06911000	-0.45831700	-0.09277900	8.85772500	2.38532300	-2.11953400	19.31143700	1.64310600	2.33505500	5.12753600	0.75970200	11.13417200
6292	62.91000000	8.88301100	1.05654400	6.12748300	8.86321100	-0.82539800	2.49777100	11.39816400	-1.54857700	-1.05099300	6.99868100	-4.96855400	1.93086400	10.07869300	-0.42118600	0.06169400	8.77953500	2.20531700	-1.74233100	19.07601600	2.73550500	1.02655700	5.52082500	0.58691500	11.19733100
6293	62.92000000	9.02562900	1.08109300	6.03875200	8.99986200	-0.60726400	2.40970900	12.46466000	-0.43034000	-0.21136700	6.79825100	-5.46170100	1.49251800	9.95066900	-0.47457900	0.33942800	8.77330100	2.00815500	-1.51238100	19.37294500	3.35427000	-0.29816000	5.46255600	0.60283800	11.10155500
6294	62.93000000	9.03485300	1.16003300	5.97149100	9.00179700	-0.48238900	2.33532500	11.66880900	1.12369800	0.05016000	7.04145700	-5.65741700	0.97128200	9.97500400	-0.68094200	0.69349400	9.00833500	1.78484300	-1.40733600	18.44066300	3.11528100	-1.11689400	4.69909500	0.59751200	11.51010000
6295	62.94000000	8.94564600	1.19323100	5.92876500	8.92527000	-0.40976600	2.41529600	9.59093500	2.89537900	-0.41975100	7.54029200	-5.34002200	0.78294300	10.13207900	-1.03803100	0.76212400	9.24092000	1.40987500	-1.60885500	16.82016300	1.96329200	-3.81832400	5.16414800	0.53787300	11.31737800
6296	62.95000000	8.92726800	1.25151600	5.88066400	8.84186000	-0.44907400	2.54069700	7.02468500	3.63171000	-0.78820700	7.90824900	-5.60003000	0.64567400	10.07995100	-1.23069300	0.61613300	9.36819600	1.08680200	-1.83141600	15.78781900	2.89754300	-5.48842900	5.24467300	0.61037700	11.27675600
6297	62.96000000	8.93932100	1.31414600	5.76949600	8.67779000	-0.53831000	2.50272300	5.52516300	3.16972900	0.00840500	8.10521400	-6.06738200	0.35078900	10.06593400	-1.36267100	0.51649200	9.40418800	0.84524800	-2.01998300	16.76526600	3.04023600	-6.46885300	5.56533300	0.59583300	11.09953900
6298	62.97000000	8.98141900	1.34568500	5.62885600	8.49539200	-0.75253700	2.35692700	5.43425100	2.54326400	1.01416300	8.29090200	-6.36763500	-0.08554600	10.10657700	-1.26132000	0.48055400	9.47672900	0.70808500	-2.05242000	15.93461800	1.59879500	-8.20196500	5.26021500	0.66175300	11.35546700
6299	62.98000000	8.97387800	1.37063200	5.27640100	8.45588200	-0.83977700	2.01405300	5.82370400	2.61177800	0.66052800	8.06032500	-6.62562900	-0.81284600	10.14571000	-1.21873900	0.41012800	9.53682100	0.69507100	-2.04278300	14.53499000	-1.31639499	-8.10689200	5.03782700	0.82031500	11.37726100
6300	62.99000000	8.92592000	1.32285800	5.09672800	8.52441000	-0.79743900	1.92833600	6.16325000	3.63096800	-0.27080800	6.82764000	-6.91480700	-1.40949400	10.26281100	-1.26568200	0.58659000	9.64660600	0.67470600	-2.00843100	16.53744200	-10.45502200	-20.86389099	5.36256100	0.78744900	11.41378700
6301	63	9.07082900	1.24619900	5.16965300	8.72305900	-0.60950900	2.60636500	7.19444300	4.01213700	0.10766400	5.22671300	-7.12307400	-2.14163200	10.42311800	-1.25988800	0.54350200	9.81902200	0.59489700	-1.96194200	15.26086000	11.20029699	-16.49962402	5.24093700	0.97584000	11.38434300
6302	63.01000000	9.70479600	1.27622700	5.59995300	9.24515700	-0.32250500	4.44724200	9.34412100	3.88409900	5.27817500	4.97391200	-6.30384400	-0.91695800	10.86277400	-0.90566700	0.52493400	10.24275200	0.49048300	-2.10883500	8.34194700	19.50050000	30.14167299	4.81031300	1.63790200	11.79028700
6303	63.02000000	10.92686300	1.28801200	6.47087600	10.26572400	0.62619100	7.92328600	13.57937600	-0.13037400	1.72291600	8.17479000	-5.31549900	1.64699700	11.96854300	-0.37543000	0.81196700	10.99289700	0.54668400	-2.43596700	4.56145200	15.41279000	17.62375901	4.50548900	-0.27490100	12.79925500
6304	63.03000000	13.21297700	1.01657600	7.51358300	11.84252900	2.00602200	9.49375700	24.09704299	-7.77781100	8.13978599	16.65137699	-5.96711800	1.94708100	13.72346400	0.58184000	1.37601600	12.47262400	0.85315800	-2.68806400	17.92988599	17.11898901	22.48224299	4.29014900	1.81074000	12.86472500
6305	63.04000000	15.86430800	-0.06802500	7.74632300	14.11098100	2.25121000	7.55467000	35.23268900	-14.55833100	11.88429600	24.39128400	-8.97127300	0.93656500	14.46865100	2.32044800	2.80145100	14.08174500	0.87433800	-3.21174900	36.27705500	-20.91149299	18.78379001	4.44484100	0.28529200	12.41271300
6306	63.05000000	16.38038800	-0.94462500	6.90308900	16.55507900	3.61880500	7.31428300	26.13387701	-14.42440100	-1.64307600	24.42653100	-6.16768300	-1.75871500	13.70921300	2.58754100	4.32598300	13.73431100	0.29245400	-3.41080200	11.78005301	-10.07356202	-4.54410200	4.32526200	0.07086200	12.65667500
6307	63.06000000	14.64731700	-1.19075600	6.23164000	17.52203900	5.36799100	7.53535800	14.14575801	-4.46477501	1.40732200	20.72032900	-2.19727100	-4.66171400	12.61898200	1.92047500	4.07554200	13.03523300	-0.28228000	-2.90656600	13.66234400	23.76927800	24.75005299	3.83038000	0.26845000	13.35439800
6308	63.07000000	12.88734200	-1.08605800	6.37408700	14.98998600	4.04910500	6.61924800	3.93270200	5.69828699	2.05213200	14.35825800	-0.67922700	-2.61706300	12.84384300	1.77714100	4.50057700	13.74253400	-0.85330700	-2.61393200	6.72974800	3.82286701	10.67764101	3.82473900	0.57683500	13.12540500
6309	63.08000000	13.44446600	-1.30683600	5.94954500	12.17787100	2.07585000	5.88652100	-0.75271900	18.10237500	-4.04852500	9.81287500	1.00327900	1.74041800	12.87110300	1.39754200	5.50657500	13.97675600	-1.03987200	-2.88573000	5.89447300	-5.20729700	2.05325000	4.81171400	2.07102300	13.05270800
6310	63.09000000	14.53466300	-1.92991200	5.66426000	11.39512800	0.33349400	5.88537300	1.97358200	20.74627800	-9.01936300	7.09947000	2.71595800	2.92226700	12.56277500	0.62105200	5.51647800	13.28391100	-0.85017500	-2.55253700	6.40475200	2.35812500	11.33794900	4.28619400	0.48554800	12.37291400
6311	63.10000000	14.51050900	-2.31324900	5.49641100	10.99869900	-0.63751800	5.72472300	5.62536100	19.46617700	-9.71375900	5.88168300	4.44416300	1.46375600	12.50511000	-0.25430400	5.25663000	12.48375800	-0.54794400	-1.75388600	6.53273400	-1.94521900	8.03509900	5.82866000	0.07511600	12.00789500
6312	63.11000000	13.60599900	-1.84964300	5.59588400	10.53881600	-1.29822300	5.61305000	6.61727400	18.27111400	-3.07090700	6.21792400	5.97797700	-1.15572200	12.28418600	-0.99741400	4.56766900	11.90436900	-0.27043900	-1.00330800	5.76782100	-2.08510900	8.34993000	8.48260100	3.79797700	15.14500300
6313	63.12000000	12.29057800	-1.53387000	5.48083200	10.51848600	-1.26460600	5.78705200	6.73919200	14.51790600	1.54357200	7.38203800	6.26236700	-2.56456300	12.08218300	-0.31628200	2.27992600	11.15112900	0.12584100	-0.30586300	6.24070900	-0.53296200	8.33444000	8.94624900	2.39092500	13.70315500
6314	63.13000000	11.56325100	-1.67514300	5.02402300	10.43194700	-0.82650300	6.07561400	7.96701000	11.00825300	0.12435200	8.84157800	4.82375200	-3.23413800	12.13451200	1.68385200	0.43815900	10.38315300	0.41982000	0.32173700	5.79201300	0.57451300	8.70227300	12.30436200	-1.17658800	11.01831900
6315	63.14000000	10.93958400	-1.43252600	4.72086600	10.00943000	-0.14285000	6.28096300	10.28832200	8.09254600	0.53497300	10.56911300	3.51468100	-2.76367500	12.25810700	2.43858800	1.18331200	9.79894900	0.66048900	0.97615500	5.12646800	0.32783600	9.01199900	12.75762600	4.31328299	13.99578300
